<?xml version="1.0" encoding="UTF-8" standalone="no"?>
<!DOCTYPE svg PUBLIC "-//W3C//DTD SVG 1.1//EN"
 "http://www.w3.org/Graphics/SVG/1.1/DTD/svg11.dtd">
<!-- Generated by graphviz version 2.26.3 (20100126.1600)
 -->
<!-- Title: G Pages: 1 -->
<svg width="198pt" height="1610pt"
 viewBox="0.00 0.00 198.00 1610.00" xmlns="http://www.w3.org/2000/svg" xmlns:xlink="http://www.w3.org/1999/xlink">
<g id="graph1" class="graph" transform="scale(1 1) rotate(0) translate(4 1606)">
<title>G</title>
<polygon fill="white" stroke="white" points="-4,5 -4,-1606 195,-1606 195,5 -4,5"/>
<g id="graph2" class="cluster"><title>cluster_global</title>
<polyline fill="none" stroke="gray" points="20,-8 170,-8 "/>
<path fill="none" stroke="gray" d="M170,-8C176,-8 182,-14 182,-20"/>
<polyline fill="none" stroke="gray" points="182,-20 182,-1582 "/>
<path fill="none" stroke="gray" d="M182,-1582C182,-1588 176,-1594 170,-1594"/>
<polyline fill="none" stroke="gray" points="170,-1594 20,-1594 "/>
<path fill="none" stroke="gray" d="M20,-1594C14,-1594 8,-1588 8,-1582"/>
<polyline fill="none" stroke="gray" points="8,-1582 8,-20 "/>
<path fill="none" stroke="gray" d="M8,-20C8,-14 14,-8 20,-8"/>
<text text-anchor="middle" x="95" y="-1580.1" font-family="Times Roman,serif" font-size="11.00" fill="gray">global</text>
</g>
<!-- \\Liber -->
<g id="node2" class="node"><title>\\Liber</title>
<a xlink:href="Liber.html" xlink:title="Liber" target="_parent">
<polygon fill="none" stroke="black" points="122,-1564 68,-1564 68,-1528 122,-1528 122,-1564"/>
<text text-anchor="middle" x="95" y="-1543.1" font-family="Courier,monospace" font-size="11.00">Liber</text>
</a>
</g>
<!-- \\Controller -->
<g id="node3" class="node"><title>\\Controller</title>
<a xlink:href="Liber.html" xlink:title="Controller" target="_parent">
<polygon fill="none" stroke="black" points="137,-1510 53,-1510 53,-1474 137,-1474 137,-1510"/>
<text text-anchor="middle" x="95" y="-1489.1" font-family="Courier,monospace" font-size="11.00">Controller</text>
</a>
</g>
<!-- \\FileCache -->
<g id="node4" class="node"><title>\\FileCache</title>
<a xlink:href="cache.FileCache.html" xlink:title="FileCache" target="_parent">
<polygon fill="none" stroke="black" points="133,-1456 57,-1456 57,-1420 133,-1420 133,-1456"/>
<text text-anchor="middle" x="95" y="-1435.1" font-family="Courier,monospace" font-size="11.00">FileCache</text>
</a>
</g>
<!-- \\FileUpdate -->
<g id="node5" class="node"><title>\\FileUpdate</title>
<a xlink:href="class.FileUpdate.html" xlink:title="FileUpdate" target="_parent">
<polygon fill="none" stroke="black" points="137,-1402 53,-1402 53,-1366 137,-1366 137,-1402"/>
<text text-anchor="middle" x="95" y="-1381.1" font-family="Courier,monospace" font-size="11.00">FileUpdate</text>
</a>
</g>
<!-- \\Setup -->
<g id="node6" class="node"><title>\\Setup</title>
<a xlink:href="class.Setup.html" xlink:title="Setup" target="_parent">
<polygon fill="none" stroke="black" points="122,-1348 68,-1348 68,-1312 122,-1312 122,-1348"/>
<text text-anchor="middle" x="95" y="-1327.1" font-family="Courier,monospace" font-size="11.00">Setup</text>
</a>
</g>
<!-- \\Minify_CSS_Compressor -->
<g id="node7" class="node"><title>\\Minify_CSS_Compressor</title>
<a xlink:href="class.Minify_CSS_Compressor.html" xlink:title="Minify_CSS_Compressor" target="_parent">
<polygon fill="none" stroke="black" points="174,-1294 16,-1294 16,-1258 174,-1258 174,-1294"/>
<text text-anchor="middle" x="95" y="-1273.1" font-family="Courier,monospace" font-size="11.00">Minify_CSS_Compressor</text>
</a>
</g>
<!-- \\SiteMap -->
<g id="node8" class="node"><title>\\SiteMap</title>
<a xlink:href="class.SiteMap.html" xlink:title="SiteMap" target="_parent">
<polygon fill="none" stroke="black" points="127,-1240 63,-1240 63,-1204 127,-1204 127,-1240"/>
<text text-anchor="middle" x="95" y="-1219.1" font-family="Courier,monospace" font-size="11.00">SiteMap</text>
</a>
</g>
<!-- \\Funky -->
<g id="node9" class="node"><title>\\Funky</title>
<a xlink:href="class.Funky.html" xlink:title="Funky" target="_parent">
<polygon fill="none" stroke="black" points="122,-1186 68,-1186 68,-1150 122,-1150 122,-1186"/>
<text text-anchor="middle" x="95" y="-1165.1" font-family="Courier,monospace" font-size="11.00">Funky</text>
</a>
</g>
<!-- \\View -->
<g id="node10" class="node"><title>\\View</title>
<a xlink:href="class.View.html" xlink:title="View" target="_parent">
<polygon fill="none" stroke="black" points="122,-1132 68,-1132 68,-1096 122,-1096 122,-1132"/>
<text text-anchor="middle" x="95" y="-1111.1" font-family="Courier,monospace" font-size="11.00">View</text>
</a>
</g>
<!-- \\Mailer -->
<g id="node11" class="node"><title>\\Mailer</title>
<a xlink:href="class.Mailer.html" xlink:title="Mailer" target="_parent">
<polygon fill="none" stroke="black" points="123,-1078 67,-1078 67,-1042 123,-1042 123,-1078"/>
<text text-anchor="middle" x="95" y="-1057.1" font-family="Courier,monospace" font-size="11.00">Mailer</text>
</a>
</g>
<!-- \\Minify_HTML -->
<g id="node12" class="node"><title>\\Minify_HTML</title>
<a xlink:href="class.Minify_HTML.html" xlink:title="Minify_HTML" target="_parent">
<polygon fill="none" stroke="black" points="140,-1024 50,-1024 50,-988 140,-988 140,-1024"/>
<text text-anchor="middle" x="95" y="-1003.1" font-family="Courier,monospace" font-size="11.00">Minify_HTML</text>
</a>
</g>
<!-- \\Feed -->
<g id="node13" class="node"><title>\\Feed</title>
<a xlink:href="class.Feed.html" xlink:title="Feed" target="_parent">
<polygon fill="none" stroke="black" points="122,-970 68,-970 68,-934 122,-934 122,-970"/>
<text text-anchor="middle" x="95" y="-949.1" font-family="Courier,monospace" font-size="11.00">Feed</text>
</a>
</g>
<!-- \\Cart -->
<g id="node14" class="node"><title>\\Cart</title>
<a xlink:href="class.Cart.html" xlink:title="Cart" target="_parent">
<polygon fill="none" stroke="black" points="122,-916 68,-916 68,-880 122,-880 122,-916"/>
<text text-anchor="middle" x="95" y="-895.1" font-family="Courier,monospace" font-size="11.00">Cart</text>
</a>
</g>
<!-- \\Minify -->
<g id="node15" class="node"><title>\\Minify</title>
<a xlink:href="class.Minify.html" xlink:title="Minify" target="_parent">
<polygon fill="none" stroke="black" points="123,-862 67,-862 67,-826 123,-826 123,-862"/>
<text text-anchor="middle" x="95" y="-841.1" font-family="Courier,monospace" font-size="11.00">Minify</text>
</a>
</g>
<!-- \\Session -->
<g id="node16" class="node"><title>\\Session</title>
<a xlink:href="class.Session.html" xlink:title="Session" target="_parent">
<polygon fill="none" stroke="black" points="127,-808 63,-808 63,-772 127,-772 127,-808"/>
<text text-anchor="middle" x="95" y="-787.1" font-family="Courier,monospace" font-size="11.00">Session</text>
</a>
</g>
<!-- \\GlobalTemplate -->
<g id="node17" class="node"><title>\\GlobalTemplate</title>
<a xlink:href="class.GlobalTemplate.html" xlink:title="GlobalTemplate" target="_parent">
<polygon fill="none" stroke="black" points="150,-754 40,-754 40,-718 150,-718 150,-754"/>
<text text-anchor="middle" x="95" y="-733.1" font-family="Courier,monospace" font-size="11.00">GlobalTemplate</text>
</a>
</g>
<!-- \\Security -->
<g id="node18" class="node"><title>\\Security</title>
<a xlink:href="class.Security.html" xlink:title="Security" target="_parent">
<polygon fill="none" stroke="black" points="130,-700 60,-700 60,-664 130,-664 130,-700"/>
<text text-anchor="middle" x="95" y="-679.1" font-family="Courier,monospace" font-size="11.00">Security</text>
</a>
</g>
<!-- \\BasicDb -->
<g id="node19" class="node"><title>\\BasicDb</title>
<a xlink:href="class.BasicDb.html" xlink:title="BasicDb" target="_parent">
<polygon fill="none" stroke="black" points="127,-646 63,-646 63,-610 127,-610 127,-646"/>
<text text-anchor="middle" x="95" y="-625.1" font-family="Courier,monospace" font-size="11.00">BasicDb</text>
</a>
</g>
<!-- \\Http -->
<g id="node20" class="node"><title>\\Http</title>
<a xlink:href="class.Http.html" xlink:title="Http" target="_parent">
<polygon fill="none" stroke="black" points="122,-592 68,-592 68,-556 122,-556 122,-592"/>
<text text-anchor="middle" x="95" y="-571.1" font-family="Courier,monospace" font-size="11.00">Http</text>
</a>
</g>
<!-- \\Validation -->
<g id="node21" class="node"><title>\\Validation</title>
<a xlink:href="class.Validation.html" xlink:title="Validation" target="_parent">
<polygon fill="none" stroke="black" points="137,-538 53,-538 53,-502 137,-502 137,-538"/>
<text text-anchor="middle" x="95" y="-517.1" font-family="Courier,monospace" font-size="11.00">Validation</text>
</a>
</g>
<!-- \\SqlExtract -->
<g id="node22" class="node"><title>\\SqlExtract</title>
<a xlink:href="class.SqlExtract.html" xlink:title="SqlExtract" target="_parent">
<polygon fill="none" stroke="black" points="137,-484 53,-484 53,-448 137,-448 137,-484"/>
<text text-anchor="middle" x="95" y="-463.1" font-family="Courier,monospace" font-size="11.00">SqlExtract</text>
</a>
</g>
<!-- \\JSMinPlus -->
<g id="node23" class="node"><title>\\JSMinPlus</title>
<a xlink:href="class.JSMinPlus.html" xlink:title="JSMinPlus" target="_parent">
<polygon fill="none" stroke="black" points="133,-430 57,-430 57,-394 133,-394 133,-430"/>
<text text-anchor="middle" x="95" y="-409.1" font-family="Courier,monospace" font-size="11.00">JSMinPlus</text>
</a>
</g>
<!-- \\JSParser -->
<g id="node24" class="node"><title>\\JSParser</title>
<a xlink:href="class.JSMinPlus.html" xlink:title="JSParser" target="_parent">
<polygon fill="none" stroke="black" points="130,-376 60,-376 60,-340 130,-340 130,-376"/>
<text text-anchor="middle" x="95" y="-355.1" font-family="Courier,monospace" font-size="11.00">JSParser</text>
</a>
</g>
<!-- \\JSCompilerContext -->
<g id="node25" class="node"><title>\\JSCompilerContext</title>
<a xlink:href="class.JSMinPlus.html" xlink:title="JSCompilerContext" target="_parent">
<polygon fill="none" stroke="black" points="160,-322 30,-322 30,-286 160,-286 160,-322"/>
<text text-anchor="middle" x="95" y="-301.1" font-family="Courier,monospace" font-size="11.00">JSCompilerContext</text>
</a>
</g>
<!-- \\JSNode -->
<g id="node26" class="node"><title>\\JSNode</title>
<a xlink:href="class.JSMinPlus.html" xlink:title="JSNode" target="_parent">
<polygon fill="none" stroke="black" points="123,-268 67,-268 67,-232 123,-232 123,-268"/>
<text text-anchor="middle" x="95" y="-247.1" font-family="Courier,monospace" font-size="11.00">JSNode</text>
</a>
</g>
<!-- \\JSTokenizer -->
<g id="node27" class="node"><title>\\JSTokenizer</title>
<a xlink:href="class.JSMinPlus.html" xlink:title="JSTokenizer" target="_parent">
<polygon fill="none" stroke="black" points="140,-214 50,-214 50,-178 140,-178 140,-214"/>
<text text-anchor="middle" x="95" y="-193.1" font-family="Courier,monospace" font-size="11.00">JSTokenizer</text>
</a>
</g>
<!-- \\JSToken -->
<g id="node28" class="node"><title>\\JSToken</title>
<a xlink:href="class.JSMinPlus.html" xlink:title="JSToken" target="_parent">
<polygon fill="none" stroke="black" points="127,-160 63,-160 63,-124 127,-124 127,-160"/>
<text text-anchor="middle" x="95" y="-139.1" font-family="Courier,monospace" font-size="11.00">JSToken</text>
</a>
</g>
<!-- \\Log -->
<g id="node29" class="node"><title>\\Log</title>
<a xlink:href="class.Log.html" xlink:title="Log" target="_parent">
<polygon fill="none" stroke="black" points="122,-106 68,-106 68,-70 122,-70 122,-106"/>
<text text-anchor="middle" x="95" y="-85.1" font-family="Courier,monospace" font-size="11.00">Log</text>
</a>
</g>
<!-- \\TemplateEngine -->
<g id="node30" class="node"><title>\\TemplateEngine</title>
<a xlink:href="class.TemplateEngine.html" xlink:title="TemplateEngine" target="_parent">
<polygon fill="none" stroke="black" points="150,-52 40,-52 40,-16 150,-16 150,-52"/>
<text text-anchor="middle" x="95" y="-31.1" font-family="Courier,monospace" font-size="11.00">TemplateEngine</text>
</a>
</g>
</g>
</svg>
